M48
METRIC,LZ,000.000
;FILE_FORMAT=3:3
;TYPE=PLATED
;Layer: PTH_Through_Via
;EasyEDA v6.5.47, 2024-12-16 18:16:38
;268b8e850bac467aae997c2779a4d6d9,381f0eae51a44e099b53e3fe18832c3b,10
;Gerber Generator version 0.2
;Holesize 1 = 0.305 mm
T01C0.305
;Holesize 2 = 0.306 mm
T02C0.306
%
G05
G90
T01
X017009Y093415
X009563Y075082
X015054Y076536
X027040Y071807
X015834Y074920
X019913Y073058
X033551Y099123
X024889Y065577
X013865Y072675
X015577Y110784
X024468Y091322
X025431Y085427
X016362Y110874
X028630Y080052
X015904Y076943
X017604Y082489
X028160Y093226
X010797Y077599
X018895Y077330
X028956Y091433
X016754Y077012
T02
X030607Y061341
X032628Y104510
X020972Y066740
X020990Y061341
X016002Y073152
M30
