G04 Layer: TopSolderMaskLayer*
G04 EasyEDA v6.5.47, 2024-12-16 18:16:38*
G04 268b8e850bac467aae997c2779a4d6d9,381f0eae51a44e099b53e3fe18832c3b,10*
G04 Gerber Generator version 0.2*
G04 Scale: 100 percent, Rotated: No, Reflected: No *
G04 Dimensions in millimeters *
G04 leading zeros omitted , absolute positions ,4 integer and 5 decimal *
%FSLAX45Y45*%
%MOMM*%

%AMMACRO1*4,1,8,-0.6211,-1.8008,-0.6508,-1.771,-0.6508,1.7711,-0.6211,1.8008,0.621,1.8008,0.6508,1.7711,0.6508,-1.771,0.621,-1.8008,-0.6211,-1.8008,0*%
%AMMACRO2*4,1,8,-0.4711,-0.4508,-0.5008,-0.421,-0.5008,0.4211,-0.4711,0.4508,0.471,0.4508,0.5008,0.4211,0.5008,-0.421,0.471,-0.4508,-0.4711,-0.4508,0*%
%AMMACRO3*4,1,8,-0.4211,-0.5008,-0.4508,-0.471,-0.4508,0.4711,-0.4211,0.5008,0.421,0.5008,0.4508,0.4711,0.4508,-0.471,0.421,-0.5008,-0.4211,-0.5008,0*%
%AMMACRO4*4,1,8,-0.5961,-0.5258,-0.6258,-0.496,-0.6258,0.4961,-0.5961,0.5258,0.596,0.5258,0.6258,0.4961,0.6258,-0.496,0.596,-0.5258,-0.5961,-0.5258,0*%
%AMMACRO5*4,1,8,-0.646,-0.4008,-0.6758,-0.371,-0.6758,0.3711,-0.646,0.4008,0.646,0.4008,0.6758,0.3711,0.6758,-0.371,0.646,-0.4008,-0.646,-0.4008,0*%
%AMMACRO6*4,1,8,-0.5711,-0.9508,-0.6008,-0.921,-0.6008,0.9211,-0.5711,0.9508,0.571,0.9508,0.6008,0.9211,0.6008,-0.921,0.571,-0.9508,-0.5711,-0.9508,0*%
%AMMACRO7*4,1,8,-0.4207,-0.45,-0.45,-0.4207,-0.45,0.4207,-0.4207,0.45,0.4207,0.45,0.45,0.4207,0.45,-0.4207,0.4207,-0.45,-0.4207,-0.45,0*%
%AMMACRO8*4,1,8,-0.4207,-0.475,-0.45,-0.4457,-0.45,0.4457,-0.4207,0.475,0.4207,0.475,0.45,0.4457,0.45,-0.4457,0.4207,-0.475,-0.4207,-0.475,0*%
%AMMACRO9*4,1,8,-0.4207,-0.25,-0.45,-0.2207,-0.45,0.2207,-0.4207,0.25,0.4207,0.25,0.45,0.2207,0.45,-0.2207,0.4207,-0.25,-0.4207,-0.25,0*%
%AMMACRO10*4,1,8,-0.2207,-0.45,-0.25,-0.4207,-0.25,0.4207,-0.2207,0.45,0.2207,0.45,0.25,0.4207,0.25,-0.4207,0.2207,-0.45,-0.2207,-0.45,0*%
%AMMACRO11*4,1,8,-0.6207,-0.65,-0.65,-0.6207,-0.65,0.6207,-0.6207,0.65,0.6207,0.65,0.65,0.6207,0.65,-0.6207,0.6207,-0.65,-0.6207,-0.65,0*%
%AMMACRO12*4,1,8,-0.557,-0.3168,-0.5868,-0.287,-0.5868,0.287,-0.557,0.3168,0.557,0.3168,0.5868,0.287,0.5868,-0.287,0.557,-0.3168,-0.557,-0.3168,0*%
%AMMACRO13*4,1,8,-0.5711,-1.3008,-0.6008,-1.271,-0.6008,1.2711,-0.5711,1.3008,0.571,1.3008,0.6008,1.2711,0.6008,-1.271,0.571,-1.3008,-0.5711,-1.3008,0*%
%AMMACRO14*4,1,8,-1.8211,-1.2208,-1.8508,-1.191,-1.8508,1.1911,-1.8211,1.2208,1.821,1.2208,1.8508,1.1911,1.8508,-1.191,1.821,-1.2208,-1.8211,-1.2208,0*%
%AMMACRO15*4,1,8,-0.4211,-0.4508,-0.4508,-0.421,-0.4508,0.4211,-0.4211,0.4508,0.421,0.4508,0.4508,0.4211,0.4508,-0.421,0.421,-0.4508,-0.4211,-0.4508,0*%
%AMMACRO16*4,1,8,-0.5707,-0.35,-0.6,-0.3207,-0.6,0.3207,-0.5707,0.35,0.5707,0.35,0.6,0.3207,0.6,-0.3207,0.5707,-0.35,-0.5707,-0.35,0*%
%AMMACRO17*4,1,8,-0.5707,-0.2,-0.6,-0.1707,-0.6,0.1707,-0.5707,0.2,0.5707,0.2,0.6,0.1707,0.6,-0.1707,0.5707,-0.2,-0.5707,-0.2,0*%
%AMMACRO18*4,1,8,-0.4531,-0.4508,-0.4828,-0.421,-0.4828,0.4211,-0.4531,0.4508,0.453,0.4508,0.4828,0.4211,0.4828,-0.421,0.453,-0.4508,-0.4531,-0.4508,0*%
%AMMACRO19*4,1,8,-0.4531,-0.454,-0.4828,-0.4243,-0.4828,0.4243,-0.4531,0.454,0.453,0.454,0.4828,0.4243,0.4828,-0.4243,0.453,-0.454,-0.4531,-0.454,0*%
%AMMACRO20*4,1,8,-0.4243,-0.4828,-0.454,-0.453,-0.454,0.4531,-0.4243,0.4828,0.4243,0.4828,0.454,0.4531,0.454,-0.453,0.4243,-0.4828,-0.4243,-0.4828,0*%
%ADD10MACRO1*%
%ADD11MACRO2*%
%ADD12MACRO3*%
%ADD13MACRO4*%
%ADD14C,2.6016*%
%ADD15MACRO5*%
%ADD16MACRO6*%
%ADD17MACRO7*%
%ADD18MACRO8*%
%ADD19MACRO9*%
%ADD20MACRO10*%
%ADD21MACRO11*%
%ADD22MACRO12*%
%ADD23C,2.0016*%
%ADD24MACRO13*%
%ADD25MACRO14*%
%ADD26MACRO15*%
%ADD27MACRO16*%
%ADD28MACRO17*%
%ADD29O,2.1000212X1.3000228*%
%ADD30O,1.9000215999999999X1.3000228*%
%ADD31MACRO18*%
%ADD32MACRO19*%
%ADD33MACRO20*%
%ADD34C,0.0197*%

%LPD*%
D10*
G01*
X1181100Y7048797D03*
G01*
X1181100Y6514802D03*
D11*
G01*
X3149600Y7308999D03*
G01*
X3149600Y7169000D03*
G01*
X3340100Y7308999D03*
G01*
X3340100Y7169000D03*
D12*
G01*
X1378099Y9436100D03*
G01*
X1238100Y9436100D03*
D11*
G01*
X2006600Y6673999D03*
G01*
X2006600Y6534000D03*
G01*
X3162300Y6673999D03*
G01*
X3162300Y6534000D03*
G01*
X2971800Y6673999D03*
G01*
X2971800Y6534000D03*
G01*
X1905000Y7372499D03*
G01*
X1905000Y7232500D03*
G01*
X2197100Y6673999D03*
G01*
X2197100Y6534000D03*
D13*
G01*
X2108200Y7107859D03*
G01*
X2108200Y7446340D03*
D14*
G01*
X2336800Y558800D03*
G01*
X1828800Y558800D03*
G01*
X2336800Y1320800D03*
G01*
X1828800Y1320800D03*
G01*
X3022600Y11569700D03*
G01*
X3022600Y11061700D03*
G01*
X2260600Y11569700D03*
G01*
X2260600Y11061700D03*
G01*
X3022600Y10274300D03*
G01*
X3022600Y9766300D03*
G01*
X2260600Y10274300D03*
G01*
X2260600Y9766300D03*
D15*
G01*
X3062300Y9086596D03*
G01*
X3062300Y8896605D03*
G01*
X3262299Y8991601D03*
G01*
X3062300Y9416796D03*
G01*
X3062300Y9226805D03*
G01*
X3262299Y9321801D03*
D16*
G01*
X2862999Y7868805D03*
G01*
X2862999Y8488805D03*
G01*
X3232999Y7868805D03*
G01*
X3232999Y8488804D03*
G36*
X1732399Y8291690D02*
G01*
X1731840Y8291720D01*
X1731286Y8291814D01*
X1730748Y8291969D01*
X1730230Y8292185D01*
X1729737Y8292457D01*
X1729280Y8292782D01*
X1728863Y8293155D01*
X1701863Y8320156D01*
X1701490Y8320572D01*
X1701164Y8321029D01*
X1700893Y8321522D01*
X1700677Y8322040D01*
X1700522Y8322579D01*
X1700428Y8323132D01*
X1700397Y8323691D01*
X1700397Y8416691D01*
X1700420Y8417181D01*
X1700494Y8417666D01*
X1700613Y8418144D01*
X1700778Y8418606D01*
X1700987Y8419048D01*
X1701241Y8419470D01*
X1701533Y8419863D01*
X1701863Y8420227D01*
X1702226Y8420557D01*
X1702620Y8420849D01*
X1703042Y8421103D01*
X1703484Y8421311D01*
X1703946Y8421476D01*
X1704423Y8421596D01*
X1704908Y8421669D01*
X1705399Y8421692D01*
X1825401Y8421692D01*
X1825891Y8421669D01*
X1826376Y8421596D01*
X1826854Y8421476D01*
X1827316Y8421311D01*
X1827758Y8421103D01*
X1828180Y8420849D01*
X1828573Y8420557D01*
X1828937Y8420227D01*
X1829267Y8419863D01*
X1829559Y8419470D01*
X1829813Y8419048D01*
X1830021Y8418606D01*
X1830186Y8418144D01*
X1830306Y8417666D01*
X1830379Y8417181D01*
X1830402Y8416691D01*
X1830402Y8296691D01*
X1830379Y8296201D01*
X1830306Y8295716D01*
X1830186Y8295238D01*
X1830021Y8294776D01*
X1829813Y8294334D01*
X1829559Y8293912D01*
X1829267Y8293519D01*
X1828937Y8293155D01*
X1828573Y8292825D01*
X1828180Y8292533D01*
X1827758Y8292279D01*
X1827316Y8292071D01*
X1826854Y8291906D01*
X1826376Y8291786D01*
X1825891Y8291713D01*
X1825401Y8291690D01*
G37*
D17*
G01*
X1230398Y9221693D03*
D18*
G01*
X2630398Y9219191D03*
D17*
G01*
X2630398Y7821693D03*
G01*
X1230398Y7821691D03*
D19*
G01*
X2630401Y8946669D03*
G01*
X2630401Y8861668D03*
G01*
X2630401Y8776667D03*
G01*
X2630401Y8691671D03*
G01*
X2630401Y8606678D03*
G01*
X2630401Y8521674D03*
G01*
X2630401Y8436673D03*
G01*
X2630401Y8351680D03*
G01*
X2630401Y8266684D03*
G01*
X2630401Y8181682D03*
G01*
X2630401Y8096679D03*
G01*
X2630401Y8011685D03*
G01*
X2630401Y7926689D03*
G01*
X2630401Y9031671D03*
G01*
X2630401Y9116669D03*
G01*
X1230398Y8096714D03*
G01*
X1230398Y8181715D03*
G01*
X1230398Y8266717D03*
G01*
X1230398Y8351713D03*
G01*
X1230398Y8436706D03*
G01*
X1230398Y8521710D03*
G01*
X1230398Y8606711D03*
G01*
X1230398Y8691704D03*
G01*
X1230398Y8776700D03*
G01*
X1230398Y8861701D03*
G01*
X1230398Y8946705D03*
G01*
X1230398Y9031698D03*
G01*
X1230398Y9116694D03*
G01*
X1230398Y8011713D03*
G01*
X1230398Y7926715D03*
D20*
G01*
X1505422Y9221693D03*
G01*
X1590423Y9221693D03*
G01*
X1675424Y9221693D03*
G01*
X1760420Y9221693D03*
G01*
X1845414Y9221693D03*
G01*
X1930417Y9221693D03*
G01*
X2015418Y9221693D03*
G01*
X2100412Y9221693D03*
G01*
X2185408Y9221693D03*
G01*
X2270409Y9221693D03*
G01*
X2355413Y9221693D03*
G01*
X2440406Y9221693D03*
G01*
X2525402Y9221693D03*
G01*
X1420421Y9221693D03*
G01*
X1335422Y9221693D03*
G01*
X2525377Y7821691D03*
G01*
X2440378Y7821691D03*
G01*
X1335397Y7821691D03*
G01*
X1420393Y7821691D03*
G01*
X1505386Y7821691D03*
G01*
X1590390Y7821691D03*
G01*
X1675391Y7821691D03*
G01*
X1760387Y7821691D03*
G01*
X1845381Y7821691D03*
G01*
X1930382Y7821691D03*
G01*
X2015385Y7821691D03*
G01*
X2100379Y7821691D03*
G01*
X2185375Y7821691D03*
G01*
X2270376Y7821691D03*
G01*
X2355377Y7821691D03*
D21*
G01*
X2095413Y8521692D03*
G01*
X2095413Y8356680D03*
G01*
X2095413Y8686679D03*
G01*
X1765406Y8521692D03*
G01*
X1765411Y8686685D03*
G01*
X1930400Y8686685D03*
G01*
X1930400Y8356678D03*
G01*
X1930400Y8521692D03*
D22*
G01*
X1485290Y7410196D03*
G01*
X1485290Y7315200D03*
G01*
X1485290Y7220203D03*
G01*
X1715109Y7220203D03*
G01*
X1715109Y7315200D03*
G01*
X1715109Y7410196D03*
D23*
G01*
X1718182Y1875485D03*
G01*
X2498191Y1875485D03*
G01*
X968197Y6125489D03*
G01*
X3248202Y6125489D03*
D24*
G01*
X1461897Y10418893D03*
G01*
X1231900Y10418893D03*
G01*
X1001902Y10418893D03*
D25*
G01*
X1231900Y9824897D03*
D26*
G01*
X1311843Y7404453D03*
G01*
X1151943Y7403752D03*
D27*
G01*
X1456703Y11483301D03*
G01*
X1456703Y11403291D03*
D28*
G01*
X1456703Y11338293D03*
G01*
X1456703Y11288280D03*
G01*
X1456703Y11238293D03*
G01*
X1456703Y11188306D03*
G01*
X1456703Y11138293D03*
G01*
X1456703Y11088306D03*
G01*
X1456703Y11038293D03*
G01*
X1456703Y10988281D03*
D27*
G01*
X1456703Y10923282D03*
G01*
X1456703Y10843298D03*
D29*
G01*
X1401724Y11595785D03*
G01*
X1401724Y10730788D03*
D30*
G01*
X981710Y11595785D03*
G01*
X981710Y10730788D03*
D31*
G01*
X2552712Y7550299D03*
G01*
X2552712Y7410300D03*
D26*
G01*
X2755910Y7387656D03*
G01*
X2755894Y7547556D03*
D32*
G01*
X1625600Y11492624D03*
G01*
X1625600Y11341975D03*
G01*
X1625600Y10846675D03*
G01*
X1625600Y10997324D03*
D33*
G01*
X1700924Y9436100D03*
G01*
X1550275Y9436100D03*
G01*
X1143875Y7607300D03*
G01*
X1294524Y7607300D03*
D32*
G01*
X2895600Y9054224D03*
G01*
X2895600Y8903575D03*
G01*
X2895600Y9397124D03*
G01*
X2895600Y9246475D03*
G01*
X1828800Y6679324D03*
G01*
X1828800Y6528675D03*
G01*
X1651000Y6528675D03*
G01*
X1651000Y6679324D03*
G01*
X2781300Y6528675D03*
G01*
X2781300Y6679324D03*
G01*
X2578100Y6679324D03*
G01*
X2578100Y6528675D03*
G01*
X2387600Y6528675D03*
G01*
X2387600Y6679324D03*
M02*
