G04 Layer: TopPasteMaskLayer*
G04 EasyEDA v6.5.47, 2024-12-16 18:16:38*
G04 268b8e850bac467aae997c2779a4d6d9,381f0eae51a44e099b53e3fe18832c3b,10*
G04 Gerber Generator version 0.2*
G04 Scale: 100 percent, Rotated: No, Reflected: No *
G04 Dimensions in millimeters *
G04 leading zeros omitted , absolute positions ,4 integer and 5 decimal *
%FSLAX45Y45*%
%MOMM*%

%AMMACRO1*4,1,6,0.6,0.6,0.6,-0.6,-0.31,-0.6,-0.33,-0.6,-0.6,-0.33,-0.6,0.6,0.6,0.6,0*%
%AMMACRO2*21,1,$1,$2,0,0,$3*%
%ADD10R,1.2000X3.5000*%
%ADD11R,0.9000X0.8000*%
%ADD12R,0.8000X0.9000*%
%ADD13R,1.1500X0.9500*%
%ADD14R,1.2500X0.7000*%
%ADD15R,1.1000X1.8000*%
%ADD16MACRO1*%
%ADD17MACRO2,0.8X0.8X0.0000*%
%ADD18MACRO2,0.8X0.85X0.0000*%
%ADD19MACRO2,0.4X0.8X-90.0000*%
%ADD20MACRO2,0.4X0.8X90.0000*%
%ADD21MACRO2,0.4X0.8X0.0000*%
%ADD22MACRO2,1.2X1.2X0.0000*%
%ADD23R,1.0720X0.5320*%
%ADD24R,1.1000X2.5000*%
%ADD25MACRO2,3.6X2.34X0.0000*%
%ADD26R,0.8000X0.8000*%
%ADD27R,0.0144X0.8000*%

%LPD*%
G36*
X1401724Y11053318D02*
G01*
X1401724Y11023295D01*
X1511706Y11023295D01*
X1511706Y11053318D01*
G37*
G36*
X1401724Y11003280D02*
G01*
X1401724Y10973257D01*
X1511706Y10973257D01*
X1511706Y11003280D01*
G37*
G36*
X1401724Y11513312D02*
G01*
X1401724Y11453317D01*
X1511706Y11453317D01*
X1511706Y11513312D01*
G37*
G36*
X1401724Y11103305D02*
G01*
X1401724Y11073282D01*
X1511706Y11073282D01*
X1511706Y11103305D01*
G37*
G36*
X1401724Y10953292D02*
G01*
X1401724Y10893298D01*
X1511706Y10893298D01*
X1511706Y10953292D01*
G37*
G36*
X1401724Y10873282D02*
G01*
X1401724Y10813288D01*
X1511706Y10813288D01*
X1511706Y10873282D01*
G37*
G36*
X1401724Y11153292D02*
G01*
X1401724Y11123269D01*
X1511706Y11123269D01*
X1511706Y11153292D01*
G37*
G36*
X1401724Y11203330D02*
G01*
X1401724Y11173307D01*
X1511706Y11173307D01*
X1511706Y11203330D01*
G37*
G36*
X1401724Y11433302D02*
G01*
X1401724Y11373307D01*
X1511706Y11373307D01*
X1511706Y11433302D01*
G37*
G36*
X1401724Y11253317D02*
G01*
X1401724Y11223294D01*
X1511706Y11223294D01*
X1511706Y11253317D01*
G37*
G36*
X1401724Y11303304D02*
G01*
X1401724Y11273282D01*
X1511706Y11273282D01*
X1511706Y11303304D01*
G37*
G36*
X1401724Y11353292D02*
G01*
X1401724Y11323269D01*
X1511706Y11323269D01*
X1511706Y11353292D01*
G37*
G36*
X1361694Y10790783D02*
G01*
X1355750Y10790478D01*
X1349806Y10789615D01*
X1344015Y10788142D01*
X1338427Y10786110D01*
X1333042Y10783519D01*
X1327912Y10780369D01*
X1323136Y10776762D01*
X1318768Y10772698D01*
X1314805Y10768228D01*
X1311300Y10763351D01*
X1308303Y10758170D01*
X1305864Y10752734D01*
X1303934Y10747044D01*
X1302613Y10741202D01*
X1301902Y10735259D01*
X1301750Y10729315D01*
X1302156Y10723321D01*
X1303223Y10717428D01*
X1304848Y10711688D01*
X1307033Y10706150D01*
X1309776Y10700816D01*
X1312976Y10695787D01*
X1316736Y10691114D01*
X1320901Y10686796D01*
X1325473Y10682986D01*
X1330401Y10679582D01*
X1335684Y10676737D01*
X1341170Y10674400D01*
X1346911Y10672673D01*
X1352753Y10671454D01*
X1358696Y10670895D01*
X1441704Y10670794D01*
X1447698Y10671098D01*
X1453591Y10672013D01*
X1459382Y10673486D01*
X1465021Y10675518D01*
X1470406Y10678109D01*
X1475486Y10681208D01*
X1480261Y10684814D01*
X1484680Y10688929D01*
X1488643Y10693400D01*
X1492097Y10698226D01*
X1495094Y10703407D01*
X1497584Y10708894D01*
X1499463Y10714532D01*
X1500784Y10720374D01*
X1501546Y10726318D01*
X1501698Y10732312D01*
X1501241Y10738256D01*
X1500225Y10744149D01*
X1498600Y10749889D01*
X1496415Y10755477D01*
X1493672Y10760811D01*
X1490421Y10765840D01*
X1486712Y10770514D01*
X1482547Y10774781D01*
X1477924Y10778642D01*
X1472996Y10781995D01*
X1467764Y10784840D01*
X1462227Y10787176D01*
X1456537Y10788954D01*
X1450644Y10790123D01*
X1444701Y10790732D01*
G37*
G36*
X1361694Y11655806D02*
G01*
X1355750Y11655501D01*
X1349806Y11654586D01*
X1344015Y11653113D01*
X1338427Y11651081D01*
X1333042Y11648490D01*
X1327912Y11645392D01*
X1323136Y11641785D01*
X1318768Y11637670D01*
X1314805Y11633200D01*
X1311300Y11628374D01*
X1308303Y11623192D01*
X1305864Y11617706D01*
X1303934Y11612067D01*
X1302613Y11606225D01*
X1301902Y11600281D01*
X1301750Y11594287D01*
X1302156Y11588343D01*
X1303223Y11582450D01*
X1304848Y11576710D01*
X1307033Y11571122D01*
X1309776Y11565788D01*
X1312976Y11560759D01*
X1316736Y11556085D01*
X1320901Y11551818D01*
X1325473Y11547957D01*
X1330401Y11544604D01*
X1335684Y11541760D01*
X1341170Y11539423D01*
X1346911Y11537645D01*
X1352753Y11536476D01*
X1358696Y11535867D01*
X1441704Y11535816D01*
X1447698Y11536121D01*
X1453591Y11536984D01*
X1459382Y11538458D01*
X1465021Y11540490D01*
X1470406Y11543131D01*
X1475486Y11546230D01*
X1480261Y11549837D01*
X1484680Y11553901D01*
X1488643Y11558371D01*
X1492097Y11563248D01*
X1495094Y11568430D01*
X1497584Y11573865D01*
X1499463Y11579555D01*
X1500784Y11585397D01*
X1501546Y11591340D01*
X1501698Y11597284D01*
X1501241Y11603278D01*
X1500225Y11609171D01*
X1498600Y11614912D01*
X1496415Y11620449D01*
X1493672Y11625783D01*
X1490421Y11630812D01*
X1486712Y11635486D01*
X1482547Y11639804D01*
X1477924Y11643614D01*
X1472996Y11647017D01*
X1467764Y11649862D01*
X1462227Y11652199D01*
X1456537Y11653926D01*
X1450644Y11655145D01*
X1444701Y11655704D01*
G37*
G36*
X966673Y11655806D02*
G01*
X960729Y11655501D01*
X954786Y11654586D01*
X948994Y11653113D01*
X943406Y11651081D01*
X938021Y11648490D01*
X932891Y11645392D01*
X928116Y11641785D01*
X923747Y11637670D01*
X919784Y11633200D01*
X916279Y11628374D01*
X913282Y11623192D01*
X910844Y11617706D01*
X908913Y11612067D01*
X907592Y11606225D01*
X906881Y11600281D01*
X906729Y11594287D01*
X907186Y11588343D01*
X908202Y11582450D01*
X909828Y11576710D01*
X912012Y11571122D01*
X914755Y11565788D01*
X917956Y11560759D01*
X921715Y11556085D01*
X925880Y11551818D01*
X930452Y11547957D01*
X935431Y11544604D01*
X940663Y11541760D01*
X946200Y11539423D01*
X951890Y11537645D01*
X957732Y11536476D01*
X963726Y11535867D01*
X996696Y11535816D01*
X1002690Y11536121D01*
X1008583Y11536984D01*
X1014374Y11538458D01*
X1020013Y11540490D01*
X1025398Y11543131D01*
X1030478Y11546230D01*
X1035253Y11549837D01*
X1039672Y11553901D01*
X1043584Y11558371D01*
X1047089Y11563248D01*
X1050086Y11568430D01*
X1052525Y11573865D01*
X1054455Y11579555D01*
X1055776Y11585397D01*
X1056538Y11591340D01*
X1056690Y11597284D01*
X1056233Y11603278D01*
X1055217Y11609171D01*
X1053592Y11614912D01*
X1051407Y11620449D01*
X1048664Y11625783D01*
X1045413Y11630812D01*
X1041704Y11635486D01*
X1037488Y11639804D01*
X1032916Y11643614D01*
X1027988Y11647017D01*
X1022705Y11649862D01*
X1017219Y11652199D01*
X1011478Y11653926D01*
X1005636Y11655145D01*
X999693Y11655704D01*
G37*
G36*
X966673Y10790783D02*
G01*
X960729Y10790478D01*
X954786Y10789615D01*
X948994Y10788142D01*
X943406Y10786110D01*
X938021Y10783519D01*
X932891Y10780369D01*
X928116Y10776762D01*
X923747Y10772698D01*
X919784Y10768228D01*
X916279Y10763351D01*
X913282Y10758170D01*
X910844Y10752734D01*
X908913Y10747044D01*
X907592Y10741202D01*
X906881Y10735259D01*
X906729Y10729315D01*
X907186Y10723321D01*
X908202Y10717428D01*
X909828Y10711688D01*
X912012Y10706150D01*
X914755Y10700816D01*
X917956Y10695787D01*
X921715Y10691114D01*
X925880Y10686796D01*
X930452Y10682986D01*
X935431Y10679582D01*
X940663Y10676737D01*
X946200Y10674400D01*
X951890Y10672673D01*
X957732Y10671454D01*
X963726Y10670895D01*
X996696Y10670794D01*
X1002690Y10671098D01*
X1008583Y10672013D01*
X1014374Y10673486D01*
X1020013Y10675518D01*
X1025398Y10678109D01*
X1030478Y10681208D01*
X1035253Y10684814D01*
X1039672Y10688929D01*
X1043584Y10693400D01*
X1047089Y10698226D01*
X1050086Y10703407D01*
X1052525Y10708894D01*
X1054455Y10714532D01*
X1055776Y10720374D01*
X1056538Y10726318D01*
X1056690Y10732312D01*
X1056233Y10738256D01*
X1055217Y10744149D01*
X1053592Y10749889D01*
X1051407Y10755477D01*
X1048664Y10760811D01*
X1045413Y10765840D01*
X1041704Y10770514D01*
X1037488Y10774781D01*
X1032916Y10778642D01*
X1027988Y10781995D01*
X1022705Y10784840D01*
X1017219Y10787176D01*
X1011478Y10788954D01*
X1005636Y10790123D01*
X999693Y10790732D01*
G37*
G36*
X2516378Y7589621D02*
G01*
X2509977Y7583220D01*
X2509977Y7532878D01*
X2539339Y7505446D01*
X2566974Y7505446D01*
X2596388Y7532878D01*
X2596388Y7583220D01*
X2589987Y7589621D01*
G37*
G36*
X2540457Y7453884D02*
G01*
X2511094Y7426452D01*
X2511094Y7376159D01*
X2517495Y7369759D01*
X2591104Y7369759D01*
X2597505Y7376159D01*
X2597505Y7426452D01*
X2568143Y7453884D01*
G37*
G36*
X1585620Y11541810D02*
G01*
X1580591Y11536781D01*
X1580591Y11456822D01*
X1585620Y11451793D01*
X1608378Y11451793D01*
X1608378Y11488826D01*
X1641398Y11488826D01*
X1641398Y11451793D01*
X1665579Y11451793D01*
X1670608Y11456822D01*
X1670608Y11536781D01*
X1665579Y11541810D01*
G37*
G36*
X1585620Y11382806D02*
G01*
X1580591Y11377777D01*
X1580591Y11297818D01*
X1585620Y11292789D01*
X1665579Y11292789D01*
X1670608Y11297818D01*
X1670608Y11377777D01*
X1665579Y11382806D01*
X1642821Y11382806D01*
X1642821Y11345773D01*
X1609801Y11345773D01*
X1609801Y11382806D01*
G37*
G36*
X1585620Y10887506D02*
G01*
X1580591Y10882477D01*
X1580591Y10802518D01*
X1585620Y10797489D01*
X1665579Y10797489D01*
X1670608Y10802518D01*
X1670608Y10882477D01*
X1665579Y10887506D01*
X1642821Y10887506D01*
X1642821Y10850473D01*
X1609801Y10850473D01*
X1609801Y10887506D01*
G37*
G36*
X1585620Y11046510D02*
G01*
X1580591Y11041481D01*
X1580591Y10961522D01*
X1585620Y10956493D01*
X1608378Y10956493D01*
X1608378Y10993526D01*
X1641398Y10993526D01*
X1641398Y10956493D01*
X1665579Y10956493D01*
X1670608Y10961522D01*
X1670608Y11041481D01*
X1665579Y11046510D01*
G37*
G36*
X1665122Y9481108D02*
G01*
X1660093Y9476079D01*
X1660093Y9453321D01*
X1697126Y9453321D01*
X1697126Y9420301D01*
X1660093Y9420301D01*
X1660093Y9396120D01*
X1665122Y9391091D01*
X1745081Y9391091D01*
X1750110Y9396120D01*
X1750110Y9476079D01*
X1745081Y9481108D01*
G37*
G36*
X1506118Y9481108D02*
G01*
X1501089Y9476079D01*
X1501089Y9396120D01*
X1506118Y9391091D01*
X1586077Y9391091D01*
X1591106Y9396120D01*
X1591106Y9418878D01*
X1554073Y9418878D01*
X1554073Y9451898D01*
X1591106Y9451898D01*
X1591106Y9476079D01*
X1586077Y9481108D01*
G37*
G36*
X1099718Y7652308D02*
G01*
X1094689Y7647279D01*
X1094689Y7567320D01*
X1099718Y7562291D01*
X1179677Y7562291D01*
X1184706Y7567320D01*
X1184706Y7590078D01*
X1147673Y7590078D01*
X1147673Y7623098D01*
X1184706Y7623098D01*
X1184706Y7647279D01*
X1179677Y7652308D01*
G37*
G36*
X1258722Y7652308D02*
G01*
X1253693Y7647279D01*
X1253693Y7624521D01*
X1290726Y7624521D01*
X1290726Y7591501D01*
X1253693Y7591501D01*
X1253693Y7567320D01*
X1258722Y7562291D01*
X1338681Y7562291D01*
X1343710Y7567320D01*
X1343710Y7647279D01*
X1338681Y7652308D01*
G37*
G36*
X2855620Y9103410D02*
G01*
X2850591Y9098381D01*
X2850591Y9018422D01*
X2855620Y9013393D01*
X2878378Y9013393D01*
X2878378Y9050426D01*
X2911398Y9050426D01*
X2911398Y9013393D01*
X2935579Y9013393D01*
X2940608Y9018422D01*
X2940608Y9098381D01*
X2935579Y9103410D01*
G37*
G36*
X2855620Y8944406D02*
G01*
X2850591Y8939377D01*
X2850591Y8859418D01*
X2855620Y8854389D01*
X2935579Y8854389D01*
X2940608Y8859418D01*
X2940608Y8939377D01*
X2935579Y8944406D01*
X2912821Y8944406D01*
X2912821Y8907373D01*
X2879801Y8907373D01*
X2879801Y8944406D01*
G37*
G36*
X2855620Y9446310D02*
G01*
X2850591Y9441281D01*
X2850591Y9361322D01*
X2855620Y9356293D01*
X2878378Y9356293D01*
X2878378Y9393326D01*
X2911398Y9393326D01*
X2911398Y9356293D01*
X2935579Y9356293D01*
X2940608Y9361322D01*
X2940608Y9441281D01*
X2935579Y9446310D01*
G37*
G36*
X2855620Y9287306D02*
G01*
X2850591Y9282277D01*
X2850591Y9202318D01*
X2855620Y9197289D01*
X2935579Y9197289D01*
X2940608Y9202318D01*
X2940608Y9282277D01*
X2935579Y9287306D01*
X2912821Y9287306D01*
X2912821Y9250273D01*
X2879801Y9250273D01*
X2879801Y9287306D01*
G37*
G36*
X1788820Y6728510D02*
G01*
X1783791Y6723481D01*
X1783791Y6643522D01*
X1788820Y6638493D01*
X1811578Y6638493D01*
X1811578Y6675526D01*
X1844598Y6675526D01*
X1844598Y6638493D01*
X1868779Y6638493D01*
X1873808Y6643522D01*
X1873808Y6723481D01*
X1868779Y6728510D01*
G37*
G36*
X1788820Y6569506D02*
G01*
X1783791Y6564477D01*
X1783791Y6484518D01*
X1788820Y6479489D01*
X1868779Y6479489D01*
X1873808Y6484518D01*
X1873808Y6564477D01*
X1868779Y6569506D01*
X1846021Y6569506D01*
X1846021Y6532473D01*
X1813001Y6532473D01*
X1813001Y6569506D01*
G37*
G36*
X1611020Y6569506D02*
G01*
X1605991Y6564477D01*
X1605991Y6484518D01*
X1611020Y6479489D01*
X1690979Y6479489D01*
X1696008Y6484518D01*
X1696008Y6564477D01*
X1690979Y6569506D01*
X1668221Y6569506D01*
X1668221Y6532473D01*
X1635201Y6532473D01*
X1635201Y6569506D01*
G37*
G36*
X1611020Y6728510D02*
G01*
X1605991Y6723481D01*
X1605991Y6643522D01*
X1611020Y6638493D01*
X1633778Y6638493D01*
X1633778Y6675526D01*
X1666798Y6675526D01*
X1666798Y6638493D01*
X1690979Y6638493D01*
X1696008Y6643522D01*
X1696008Y6723481D01*
X1690979Y6728510D01*
G37*
G36*
X2741320Y6569506D02*
G01*
X2736291Y6564477D01*
X2736291Y6484518D01*
X2741320Y6479489D01*
X2821279Y6479489D01*
X2826308Y6484518D01*
X2826308Y6564477D01*
X2821279Y6569506D01*
X2798521Y6569506D01*
X2798521Y6532473D01*
X2765501Y6532473D01*
X2765501Y6569506D01*
G37*
G36*
X2741320Y6728510D02*
G01*
X2736291Y6723481D01*
X2736291Y6643522D01*
X2741320Y6638493D01*
X2764078Y6638493D01*
X2764078Y6675526D01*
X2797098Y6675526D01*
X2797098Y6638493D01*
X2821279Y6638493D01*
X2826308Y6643522D01*
X2826308Y6723481D01*
X2821279Y6728510D01*
G37*
G36*
X2538120Y6728510D02*
G01*
X2533091Y6723481D01*
X2533091Y6643522D01*
X2538120Y6638493D01*
X2560878Y6638493D01*
X2560878Y6675526D01*
X2593898Y6675526D01*
X2593898Y6638493D01*
X2618079Y6638493D01*
X2623108Y6643522D01*
X2623108Y6723481D01*
X2618079Y6728510D01*
G37*
G36*
X2538120Y6569506D02*
G01*
X2533091Y6564477D01*
X2533091Y6484518D01*
X2538120Y6479489D01*
X2618079Y6479489D01*
X2623108Y6484518D01*
X2623108Y6564477D01*
X2618079Y6569506D01*
X2595321Y6569506D01*
X2595321Y6532473D01*
X2562301Y6532473D01*
X2562301Y6569506D01*
G37*
G36*
X2347620Y6569506D02*
G01*
X2342591Y6564477D01*
X2342591Y6484518D01*
X2347620Y6479489D01*
X2427579Y6479489D01*
X2432608Y6484518D01*
X2432608Y6564477D01*
X2427579Y6569506D01*
X2404821Y6569506D01*
X2404821Y6532473D01*
X2371801Y6532473D01*
X2371801Y6569506D01*
G37*
G36*
X2347620Y6728510D02*
G01*
X2342591Y6723481D01*
X2342591Y6643522D01*
X2347620Y6638493D01*
X2370378Y6638493D01*
X2370378Y6675526D01*
X2403398Y6675526D01*
X2403398Y6638493D01*
X2427579Y6638493D01*
X2432608Y6643522D01*
X2432608Y6723481D01*
X2427579Y6728510D01*
G37*
D10*
G01*
X1181100Y7048804D03*
G01*
X1181100Y6514795D03*
D11*
G01*
X3149600Y7309002D03*
G01*
X3149600Y7168997D03*
G01*
X3340100Y7309002D03*
G01*
X3340100Y7168997D03*
D12*
G01*
X1378102Y9436100D03*
G01*
X1238097Y9436100D03*
D11*
G01*
X2006600Y6674002D03*
G01*
X2006600Y6533997D03*
G01*
X3162300Y6674002D03*
G01*
X3162300Y6533997D03*
G01*
X2971800Y6674002D03*
G01*
X2971800Y6533997D03*
G01*
X1905000Y7372502D03*
G01*
X1905000Y7232497D03*
G01*
X2197100Y6674002D03*
G01*
X2197100Y6533997D03*
D13*
G01*
X2108200Y7107859D03*
G01*
X2108200Y7446340D03*
D14*
G01*
X3062300Y9086595D03*
G01*
X3062300Y8896604D03*
G01*
X3262299Y8991600D03*
G01*
X3062300Y9416795D03*
G01*
X3062300Y9226804D03*
G01*
X3262299Y9321800D03*
D15*
G01*
X2863011Y7868793D03*
G01*
X2863011Y8488806D03*
G01*
X3232988Y7868793D03*
G01*
X3232988Y8488806D03*
D16*
G01*
X1765400Y8356691D03*
D17*
G01*
X1230398Y9221693D03*
D18*
G01*
X2630398Y9219191D03*
D17*
G01*
X2630398Y7821693D03*
G01*
X1230398Y7821691D03*
D19*
G01*
X2630401Y8946669D03*
G01*
X2630401Y8861668D03*
G01*
X2630401Y8776667D03*
G01*
X2630401Y8691671D03*
G01*
X2630401Y8606678D03*
G01*
X2630401Y8521674D03*
G01*
X2630401Y8436673D03*
G01*
X2630401Y8351680D03*
G01*
X2630401Y8266684D03*
G01*
X2630401Y8181682D03*
G01*
X2630401Y8096679D03*
G01*
X2630401Y8011685D03*
G01*
X2630401Y7926689D03*
G01*
X2630401Y9031671D03*
G01*
X2630401Y9116669D03*
D20*
G01*
X1230398Y8096714D03*
G01*
X1230398Y8181715D03*
G01*
X1230398Y8266717D03*
G01*
X1230398Y8351713D03*
G01*
X1230398Y8436706D03*
G01*
X1230398Y8521710D03*
G01*
X1230398Y8606711D03*
G01*
X1230398Y8691704D03*
G01*
X1230398Y8776700D03*
G01*
X1230398Y8861701D03*
G01*
X1230398Y8946705D03*
G01*
X1230398Y9031698D03*
G01*
X1230398Y9116694D03*
G01*
X1230398Y8011713D03*
G01*
X1230398Y7926715D03*
D21*
G01*
X1505422Y9221693D03*
G01*
X1590423Y9221693D03*
G01*
X1675424Y9221693D03*
G01*
X1760420Y9221693D03*
G01*
X1845414Y9221693D03*
G01*
X1930417Y9221693D03*
G01*
X2015418Y9221693D03*
G01*
X2100412Y9221693D03*
G01*
X2185408Y9221693D03*
G01*
X2270409Y9221693D03*
G01*
X2355413Y9221693D03*
G01*
X2440406Y9221693D03*
G01*
X2525402Y9221693D03*
G01*
X1420421Y9221693D03*
G01*
X1335422Y9221693D03*
G01*
X2525377Y7821691D03*
G01*
X2440378Y7821691D03*
G01*
X1335397Y7821691D03*
G01*
X1420393Y7821691D03*
G01*
X1505386Y7821691D03*
G01*
X1590390Y7821691D03*
G01*
X1675391Y7821691D03*
G01*
X1760387Y7821691D03*
G01*
X1845381Y7821691D03*
G01*
X1930382Y7821691D03*
G01*
X2015385Y7821691D03*
G01*
X2100379Y7821691D03*
G01*
X2185375Y7821691D03*
G01*
X2270376Y7821691D03*
G01*
X2355377Y7821691D03*
D22*
G01*
X2095413Y8521692D03*
G01*
X2095413Y8356680D03*
G01*
X2095413Y8686679D03*
G01*
X1765406Y8521692D03*
G01*
X1765411Y8686685D03*
G01*
X1930399Y8686685D03*
G01*
X1930399Y8356678D03*
G01*
X1930399Y8521692D03*
D23*
G01*
X1485290Y7410195D03*
G01*
X1485290Y7315200D03*
G01*
X1485290Y7220204D03*
G01*
X1715109Y7220204D03*
G01*
X1715109Y7315200D03*
G01*
X1715109Y7410195D03*
D24*
G01*
X1461896Y10418902D03*
G01*
X1231900Y10418902D03*
G01*
X1001903Y10418902D03*
D25*
G01*
X1231900Y9824897D03*
D26*
G01*
X1311833Y7404455D03*
G01*
X1151940Y7403744D03*
G01*
X2755912Y7387653D03*
G01*
X2755887Y7547546D03*
M02*
